<?xml version="1.0" encoding="iso-8859-1"?>
<!-- Generator: Adobe Illustrator 18.0.0, SVG Export Plug-In . SVG Version: 6.00 Build 0)  -->
<!DOCTYPE svg PUBLIC "-//W3C//DTD SVG 1.1//EN" "http://www.w3.org/Graphics/SVG/1.1/DTD/svg11.dtd">
<svg xmlns="http://www.w3.org/2000/svg" xmlns:xlink="http://www.w3.org/1999/xlink" version="1.1" id="Capa_1" x="0px" y="0px" viewBox="0 0 455.731 455.731" style="enable-background:new 0 0 455.731 455.731;" xml:space="preserve" width="512px" height="512px">
<path d="M0,0v455.731h455.731V0H0z M139.94,375.963c0,5.804-4.705,10.509-10.509,10.509H84.71c-5.804,0-10.509-4.705-10.509-10.509  V185.18c0-5.804,4.705-10.509,10.509-10.509h44.721c5.804,0,10.509,4.705,10.509,10.509V375.963z M106.998,145.491  c-20.308,0.411-38.155-16.551-38.151-38.188c0-20.985,17.282-38.105,38.408-38.088c20.873,0.017,38.088,17.257,38.043,38.234  C145.248,129.413,127.02,145.969,106.998,145.491z M386.884,382.153c0,2.41-1.954,4.363-4.364,4.362l-57.152-0.014  c-2.409-0.001-4.362-1.954-4.362-4.363V264.331c0-10.183-4.126-19.407-10.802-26.079c-6.764-6.768-16.149-10.916-26.501-10.799  c-20.279,0.229-36.454,17.068-36.454,37.348v117.323c0,2.41-1.954,4.363-4.364,4.362l-57.011-0.014  c-2.409-0.001-4.361-1.954-4.361-4.362V179.034c0-2.409,1.953-4.363,4.363-4.363h55.795c2.409,0,4.363,1.953,4.363,4.363v23.418  c0.005-0.01,0.225,0.018,0.599,0.075c1.078-1.95,2.252-3.839,3.52-5.658c11.628-16.688,30.96-27.606,52.842-27.606h11.47  c39.996,0,72.42,32.423,72.42,72.42V382.153z" fill="#34495e"/>
<g>
</g>
<g>
</g>
<g>
</g>
<g>
</g>
<g>
</g>
<g>
</g>
<g>
</g>
<g>
</g>
<g>
</g>
<g>
</g>
<g>
</g>
<g>
</g>
<g>
</g>
<g>
</g>
<g>
</g>
</svg>
