<?xml version="1.0" encoding="UTF-8" standalone="no"?>
<svg width="413px" height="65px" viewBox="0 0 413 65" version="1.1" xmlns="http://www.w3.org/2000/svg" xmlns:xlink="http://www.w3.org/1999/xlink" xmlns:sketch="http://www.bohemiancoding.com/sketch/ns">
    <!-- Generator: Sketch 3.0.2 (7799) - http://www.bohemiancoding.com/sketch -->
    <title>bigLogo</title>
    <description>Created with Sketch.</description>
    <defs></defs>
    <g id="Page-1" stroke="none" stroke-width="1" fill="none" fill-rule="evenodd" sketch:type="MSPage">
        <g id="Homepage" sketch:type="MSArtboardGroup" transform="translate(-114.000000, -57.000000)">
            <g id="bigLogo" sketch:type="MSLayerGroup" transform="translate(114.000000, 57.000000)">
                <path d="M32.1190349,0 C14.379955,0 0,14.3421072 0,32.0352515 C0,49.724629 14.379955,64.0667362 32.1190349,64.0667362 C49.8550934,64.0667362 64.2365591,49.724629 64.2365591,32.0352515 C64.2365591,14.3421072 49.8550934,0 32.1190349,0" id="Fill-1" fill="#ED1C24" sketch:type="MSShapeGroup"></path>
                <path d="M41.094014,36.1405847 C40.5736273,37.346957 39.8687806,38.4097863 38.9989699,39.297768 C38.1284093,40.1880402 37.0883855,40.908046 35.9073925,41.435643 C34.7226502,41.9678212 33.4486774,42.2365826 32.1207163,42.2365826 C30.7905057,42.2381097 29.5165329,41.9678212 28.3310408,41.43717 C27.1515475,40.9088095 26.1092742,40.1895673 25.2387136,39.299295 C24.3674032,38.4074957 23.6625566,37.3439029 23.1451691,36.1405847 C22.6255322,34.9311582 22.3638391,33.6308721 22.3638391,32.2717944 C22.3638391,30.9119531 22.6255322,29.6109035 23.1451691,28.401477 C23.6625566,27.1973953 24.3674032,26.134566 25.2387136,25.2435302 C26.1092742,24.3540215 27.1515475,23.6332522 28.3310408,23.1064187 C29.5150332,22.5742405 30.7890061,22.3047156 32.1207163,22.3047156 C33.4501771,22.3054791 34.7241499,22.575004 35.9073925,23.1056552 C37.0883855,23.6340157 38.1284093,24.3555485 38.9989699,25.2435302 C39.8687806,26.1322754 40.5736273,27.1951047 41.0925144,28.401477 C42.1317883,30.8210935 42.1332879,33.7186777 41.094014,36.1405847 L41.094014,36.1405847 Z M43.7353023,20.4675683 C42.2726961,18.9911638 40.5263686,17.8085298 38.5441124,16.9521397 C36.5656492,16.0965047 34.4036017,15.6607577 32.1194175,15.6607577 C29.8344746,15.6607577 27.6724271,16.0965047 25.6924468,16.9521397 C23.7079147,17.8100402 21.9623458,18.9926742 20.5004983,20.4683235 C19.0386507,21.9401968 17.8612831,23.6892264 16.9987399,25.6678349 C16.137714,27.6396468 15.70227,29.7927052 15.70227,32.0650843 C15.70227,34.3367082 16.137714,36.4890114 16.9972227,38.4630888 C17.8597658,40.4386766 19.0378921,42.1771335 20.5004983,43.6316373 C21.9593114,45.0846308 23.7079147,46.2574473 25.6924468,47.1168582 C27.6739443,47.9724931 29.8359919,48.4074849 32.1179003,48.4059745 C34.4005673,48.4059745 36.5626148,47.9724931 38.5441124,47.1168582 C40.5271272,46.2574473 42.2742133,45.0846308 43.7368195,43.6316373 C45.198667,42.1756231 46.3752761,40.436411 47.2378192,38.4615784 C48.0988452,36.487501 48.5342891,34.3382186 48.5342891,32.0643291 C48.5342891,29.7927052 48.0988452,27.6411572 47.2378192,25.6678349 C46.3745175,23.6922471 45.1963912,21.9401968 43.7353023,20.4675683 L43.7353023,20.4675683 Z" id="Fill-2" fill="#FFFFFF" sketch:type="MSShapeGroup"></path>
                <path d="M90.1694737,0 C72.4301852,0 58.0508164,14.3421072 58.0508164,32.0352515 C58.0508164,49.724629 72.4301852,64.0667362 90.1694737,64.0667362 C107.905741,64.0667362 122.287376,49.724629 122.287376,32.0352515 C122.287376,14.3421072 107.905741,0 90.1694737,0" id="Fill-3" fill="#ED1C24" sketch:type="MSShapeGroup"></path>
                <path d="M99.1448604,36.1405847 C98.6244936,37.346957 97.919674,38.4097863 97.0498967,39.297768 C96.1793696,40.1880402 95.138636,40.908046 93.9584382,41.435643 C92.7737415,41.9678212 91.4998176,42.2365826 90.1711577,42.2365826 C88.8417481,42.2381097 87.5670744,41.9678212 86.3816279,41.43717 C85.2021799,40.9088095 84.1606965,40.1895673 83.2894195,39.299295 C82.4181426,38.4074957 81.7140729,37.3439029 81.1959555,36.1405847 C80.6770883,34.9311582 80.4146555,33.6308721 80.4146555,32.2717944 C80.4146555,30.9119531 80.6770883,29.6109035 81.1959555,28.401477 C81.7140729,27.1973953 82.4181426,26.134566 83.2894195,25.2435302 C84.1606965,24.3540215 85.2021799,23.6332522 86.3816279,23.1064187 C87.5663246,22.5742405 88.8402485,22.3047156 90.1711577,22.3047156 C91.5013172,22.3054791 92.7752411,22.575004 93.9584382,23.1056552 C95.138636,23.6340157 96.1793696,24.3555485 97.0498967,25.2435302 C97.919674,26.1322754 98.6244936,27.1951047 99.1433608,28.401477 C100.182595,30.8210935 100.184094,33.7186777 99.1448604,36.1405847 L99.1448604,36.1405847 Z M101.786119,20.4675683 C100.323512,18.9911638 98.5764264,17.8085298 96.5949288,16.9521397 C94.615707,16.0965047 92.4544181,15.6607577 90.1694753,15.6607577 C87.8845324,15.6607577 85.7232435,16.0965047 83.7425046,16.9521397 C81.7579725,17.8100402 80.0124036,18.9926742 78.5513147,20.4683235 C77.0894671,21.9401968 75.9113409,23.6892264 75.0495563,25.6678349 C74.1885304,27.6396468 73.7530864,29.7927052 73.7530864,32.0650843 C73.7530864,34.3367082 74.1885304,36.4890114 75.0480391,38.4630888 C75.9098236,40.4386766 77.0887085,42.1771335 78.5513147,43.6316373 C80.0101278,45.0846308 81.7579725,46.2574473 83.7425046,47.1168582 C85.7247608,47.9724931 87.8860497,48.4074849 90.1679581,48.4059745 C92.4513837,48.4059745 94.6134312,47.9724931 96.5949288,47.1168582 C98.5779436,46.2574473 100.32503,45.0846308 101.787636,43.6316373 C103.248725,42.1756231 104.426092,40.436411 105.288636,38.4615784 C106.149662,36.487501 106.585106,34.3382186 106.585106,32.0643291 C106.585106,29.7927052 106.149662,27.6411572 105.288636,25.6678349 C104.424575,23.6922471 103.246449,21.9401968 101.786119,20.4675683 L101.786119,20.4675683 Z" id="Fill-4" fill="#FFFFFF" sketch:type="MSShapeGroup"></path>
                <path d="M321.896913,0 C304.157624,0 289.778256,14.3421072 289.778256,32.0352515 C289.778256,49.724629 304.157624,64.0667362 321.896913,64.0667362 C339.63318,64.0667362 354.014815,49.724629 354.014815,32.0352515 C354.014815,14.3421072 339.63318,0 321.896913,0" id="Fill-5" fill="#ED1C24" sketch:type="MSShapeGroup"></path>
                <path d="M331.348096,36.1405847 C330.827709,37.346957 330.123612,38.4097863 329.253802,39.297768 C328.381741,40.1880402 327.342468,40.908046 326.161475,41.435643 C324.976732,41.9678212 323.702759,42.2365826 322.374798,42.2365826 C321.044588,42.2381097 319.770615,41.9678212 318.584373,41.43717 C317.40563,40.9088095 316.362606,40.1895673 315.492796,39.299295 C314.621485,38.4074957 313.916639,37.3439029 313.398501,36.1405847 C312.880364,34.9311582 312.617921,33.6308721 312.617921,32.2717944 C312.617921,30.9119531 312.880364,29.6109035 313.398501,28.401477 C313.916639,27.1973953 314.621485,26.134566 315.492796,25.2435302 C316.362606,24.3540215 317.40563,23.6332522 318.584373,23.1064187 C319.769115,22.5742405 321.043088,22.3047156 322.374798,22.3047156 C323.704259,22.3054791 324.978232,22.575004 326.161475,23.1056552 C327.342468,23.6340157 328.381741,24.3555485 329.253802,25.2435302 C330.123612,26.1322754 330.827709,27.1951047 331.346596,28.401477 C332.38587,30.8210935 332.38737,33.7186777 331.348096,36.1405847 L331.348096,36.1405847 Z M333.989384,20.4675683 C332.526778,18.9911638 330.780451,17.8085298 328.797436,16.9521397 C326.819731,16.0965047 324.657684,15.6607577 322.3735,15.6607577 C320.088557,15.6607577 317.926509,16.0965047 315.94577,16.9521397 C313.961997,17.8100402 312.216428,18.9926742 310.753822,20.4683235 C309.293491,21.9401968 308.115365,23.6892264 307.252822,25.6678349 C306.391796,27.6396468 305.956352,29.7927052 305.956352,32.0650843 C305.956352,34.3367082 306.391796,36.4890114 307.251305,38.4630888 C308.113848,40.4386766 309.291974,42.1771335 310.753822,43.6316373 C312.213393,45.0846308 313.961997,46.2574473 315.94577,47.1168582 C317.928026,47.9724931 320.090074,48.4074849 322.371982,48.4059745 C324.655408,48.4059745 326.816697,47.9724931 328.797436,47.1168582 C330.781968,46.2574473 332.528295,45.0846308 333.990902,43.6316373 C335.45199,42.1756231 336.630117,40.436411 337.491901,38.4615784 C338.352927,36.487501 338.788371,34.3382186 338.788371,32.0643291 C338.788371,29.7927052 338.352927,27.6411572 337.491901,25.6678349 C336.628599,23.6922471 335.450473,21.9401968 333.989384,20.4675683 L333.989384,20.4675683 Z" id="Fill-6" fill="#FFFFFF" sketch:type="MSShapeGroup"></path>
                <path d="M379.947729,0 C362.209196,0 347.829072,14.3421072 347.829072,32.0352515 C347.829072,49.724629 362.209196,64.0667362 379.947729,64.0667362 C397.683996,64.0667362 412.065631,49.724629 412.065631,32.0352515 C412.065631,14.3421072 397.683996,0 379.947729,0" id="Fill-7" fill="#ED1C24" sketch:type="MSShapeGroup"></path>
                <path d="M389.398912,36.1405847 C388.878526,37.346957 388.174429,38.4097863 387.304618,39.297768 C386.433308,40.1880402 385.393284,40.908046 384.213041,41.435643 C383.028299,41.9678212 381.753576,42.2365826 380.425615,42.2365826 C379.095404,42.2381097 377.821431,41.9678212 376.635189,41.43717 C375.456446,40.9088095 374.413423,40.1895673 373.543612,39.299295 C372.672302,38.4074957 371.968205,37.3439029 371.449318,36.1405847 C370.93118,34.9311582 370.668738,33.6308721 370.668738,32.2717944 C370.668738,30.9119531 370.93118,29.6109035 371.449318,28.401477 C371.968205,27.1973953 372.672302,26.134566 373.543612,25.2435302 C374.413423,24.3540215 375.456446,23.6332522 376.635189,23.1064187 C377.819932,22.5742405 379.093905,22.3047156 380.425615,22.3047156 C381.755076,22.3054791 383.029798,22.575004 384.213041,23.1056552 C385.393284,23.6340157 386.433308,24.3555485 387.304618,25.2435302 C388.174429,26.1322754 388.878526,27.1951047 389.397413,28.401477 C390.436687,30.8210935 390.438186,33.7186777 389.398912,36.1405847 L389.398912,36.1405847 Z M392.039553,20.4675683 C390.577739,18.9911638 388.830693,17.8085298 386.848483,16.9521397 C384.870066,16.0965047 382.708827,15.6607577 380.423937,15.6607577 C378.139047,15.6607577 375.977808,16.0965047 373.996356,16.9521397 C372.012628,17.8100402 370.2671,18.9926742 368.804527,20.4683235 C367.344231,21.9401968 366.166132,23.6892264 365.303608,25.6678349 C364.442602,27.6396468 364.007168,29.7927052 364.007168,32.0650843 C364.007168,34.3367082 364.442602,36.4890114 365.302091,38.4630888 C366.164614,40.4386766 367.342713,42.1771335 368.804527,43.6316373 C370.264065,45.0846308 372.012628,46.2574473 373.996356,47.1168582 C375.979325,47.9724931 378.140564,48.4074849 380.422419,48.4059745 C382.705792,48.4059745 384.867031,47.9724931 386.848483,47.1168582 C388.832211,46.2574473 390.579256,45.0846308 392.04107,43.6316373 C393.502125,42.1756231 394.680224,40.436411 395.542748,38.4615784 C396.402995,36.487501 396.839188,34.3382186 396.839188,32.0643291 C396.839188,29.7927052 396.402995,27.6411572 395.542748,25.6678349 C394.678707,23.6922471 393.500608,21.9401968 392.039553,20.4675683 L392.039553,20.4675683 Z" id="Fill-8" fill="#FFFFFF" sketch:type="MSShapeGroup"></path>
                <path d="M148.22029,0 C130.480246,0 116.101633,14.342692 116.101633,32.0348748 C116.101633,49.7247976 130.480246,64.0667362 148.22029,64.0667362 C165.958068,64.0667362 180.338192,49.7247976 180.338192,32.0348748 C180.338192,14.342692 165.958068,0 148.22029,0" id="Fill-9" fill="#ED1C24" sketch:type="MSShapeGroup"></path>
                <path d="M155.241438,25.0527088 C156.125213,25.9291302 156.840143,26.9751085 157.364932,28.161254 C157.663073,28.8342069 157.867664,29.5380569 157.998481,30.2630073 L164.635922,30.2630073 C164.470119,28.6201883 164.065499,27.052728 163.422062,25.5854947 C162.558062,23.6148654 161.376906,21.8793552 159.910539,20.4271936 C158.446454,18.9757857 156.694115,17.8054655 154.70524,16.949391 C152.719408,16.0940701 150.551801,15.6607577 148.262504,15.6607577 C145.973207,15.6607577 143.804839,16.0835199 141.818247,16.9192475 C139.830133,17.7542216 138.068667,18.9147451 136.582525,20.3669067 C135.097144,21.8198219 133.915989,23.5538249 133.074044,25.5221934 C132.23134,27.4905618 131.803903,29.6586308 131.803903,31.9691276 L131.803903,47.4568416 L138.366047,47.4568416 L138.366047,31.5184828 L138.388864,31.5184828 C138.442104,30.347409 138.69309,29.2185362 139.160076,28.161254 C139.687147,26.974355 140.401316,25.9291302 141.284331,25.0527088 C142.166585,24.1793019 143.222248,23.4709304 144.420896,22.9494484 C146.825799,21.9049772 149.699209,21.9049772 152.104872,22.9494484 C153.30276,23.4709304 154.358423,24.1785483 155.241438,25.0527088" id="Fill-10" fill="#FFFFFF" sketch:type="MSShapeGroup"></path>
                <path d="M206.269973,0 C188.532404,0 174.152449,14.342692 174.152449,32.0341215 C174.152449,49.7247976 188.532404,64.0667362 206.269973,64.0667362 C224.008298,64.0667362 238.389008,49.7247976 238.389008,32.0341215 C238.389008,14.342692 224.008298,0 206.269973,0" id="Fill-11" fill="#ED1C24" sketch:type="MSShapeGroup"></path>
                <path d="M197.467941,26.5758313 L197.734377,26.1183496 C199.315781,23.4033804 202.126832,21.9608562 206.088947,21.8301471 L206.099425,21.8301471 C209.985201,21.8742418 212.758083,23.3175534 214.340983,26.1214992 L214.59769,26.5758313 L197.467941,26.5758313 L197.467941,26.5758313 Z M221.456797,26.1029734 C220.676723,24.0851942 219.57023,22.2822815 218.170641,20.7418996 C216.773324,19.2068137 215.049589,17.9630083 213.051691,17.0437725 C211.05455,16.1260499 208.763557,15.6607577 206.243843,15.6607577 C203.964967,15.6607577 201.80651,16.0965436 199.828304,16.9537404 C197.84631,17.8147201 196.098339,18.9896774 194.632103,20.4468363 C193.16511,21.9055084 191.990455,23.646382 191.138433,25.6248195 C190.286411,27.5987175 189.854719,29.7549496 189.854719,32.0329898 C189.854719,34.3117866 190.286411,36.4687752 191.136918,38.4426733 C191.990455,40.4218673 193.166625,42.1634975 194.632103,43.6198999 C196.098339,45.0778154 197.84631,46.2527727 199.828304,47.1122392 C201.80651,47.9701926 203.964967,48.4059784 206.243843,48.4059784 C207.922895,48.4059784 209.620881,48.1714409 211.287815,47.7114448 C212.944904,47.2522052 214.51414,46.5137903 215.950839,45.5166275 C217.386781,44.5224911 218.683369,43.2060546 219.803495,41.6074166 C220.863032,40.0950279 221.737775,38.2505038 222.40879,36.1199952 L215.206361,36.1199952 C214.489147,37.8374151 213.36675,39.231022 211.864918,40.2652568 C210.310072,41.3350505 208.418204,41.8782697 206.243843,41.8782697 C204.944225,41.8782697 203.68929,41.6338967 202.515393,41.1519599 C201.343767,40.6715363 200.303164,40.0019695 199.422362,39.1644436 C198.541561,38.3269177 197.819803,37.3289983 197.276781,36.2017051 C196.728457,35.0668461 196.43006,33.8328761 196.38992,32.5323278 L196.379317,32.2342381 L222.686738,32.2342381 C222.616305,30.0969204 222.203547,28.0360165 221.456797,26.1029734 L221.456797,26.1029734 Z" id="Fill-12" fill="#FFFFFF" sketch:type="MSShapeGroup"></path>
                <path d="M264.321923,0 C267.752093,0 271.053093,0.54167431 274.150897,1.53461832 L274.150897,19.4603465 L273.667455,19.0143504 C273.15682,18.5427396 272.535899,18.0944834 271.820557,17.6793756 C271.106725,17.2635143 270.329441,16.8898419 269.50759,16.5704123 C268.691783,16.2524894 267.830652,15.990316 266.949126,15.7899191 C266.077421,15.5925357 265.192118,15.4915839 264.321923,15.4915839 C262.049747,15.4915839 259.897676,15.9255261 257.92463,16.7798497 C255.949317,17.63568 254.209682,18.8056664 252.753314,20.2566604 C251.298457,21.7084078 250.1246,23.4434231 249.267247,25.4134903 C248.410648,27.3812973 247.976306,29.5276536 247.976306,31.7953026 C247.976306,34.0614449 248.410648,36.2078011 249.267247,38.1763616 C250.126111,40.1471822 251.299212,41.8821974 252.753314,43.3331914 C254.209682,44.7849388 255.949317,45.9549252 257.92463,46.8100022 C259.896921,47.6650792 262.049747,48.0982679 264.321923,48.0982679 C266.596365,48.0982679 268.749947,47.6741196 270.722993,46.8393837 C272.699816,46.0038944 274.450026,44.8437018 275.923013,43.3927078 C277.39751,41.9424671 278.569856,40.2089586 279.406814,38.2396448 C280.245284,36.2718377 280.668295,34.1036337 280.668295,31.7953026 L280.668295,4.46146768 C290.109005,10.0409391 296.439825,20.2973425 296.439825,32.0341215 C296.439825,49.7247976 282.060456,64.0667362 264.321923,64.0667362 C246.58339,64.0667362 232.203266,49.7247976 232.203266,32.0341215 C232.203266,14.3434453 246.58339,0 264.321923,0" id="Fill-13" fill="#ED1C24" sketch:type="MSShapeGroup"></path>
                <path d="M271.20033,38.4189303 C270.328487,39.2878621 269.289473,39.9900368 268.108775,40.5060118 C266.925828,41.0242302 265.652173,41.2874522 264.321545,41.2874522 C262.991667,41.2874522 261.718762,41.0242302 260.535065,40.5060118 C259.355117,39.9900368 258.315353,39.2878621 257.44351,38.4189303 C256.573167,37.5499985 255.869246,36.512814 255.350489,35.3342972 C254.830981,34.1520414 254.567105,32.8815465 254.567105,31.5572106 C254.567105,30.2328748 254.830981,28.961632 255.350489,27.7786285 C255.869246,26.6001117 256.573167,25.5629271 257.44351,24.6947431 C258.313853,23.8265591 259.353617,23.1251322 260.535065,22.6069139 C262.905457,21.5712249 265.738383,21.5712249 268.108775,22.6069139 C269.291722,23.1251322 270.331486,23.8273069 271.20033,24.6947431 C272.071423,25.5636749 272.776093,26.6016073 273.293351,27.7786285 C273.813608,28.9593887 274.075986,30.2306314 274.075986,31.5572106 C274.075986,32.883042 273.813608,34.1542848 273.293351,35.3342972 C272.776093,36.5113184 272.071423,37.5492507 271.20033,38.4189303" id="Fill-14" fill="#ED1C24" sketch:type="MSShapeGroup"></path>
                <path d="M274.075986,31.5572106 C274.075986,32.883042 273.813608,34.1542848 273.293351,35.3342972 C272.776093,36.5113184 272.071423,37.5492507 271.20033,38.4189303 C270.328487,39.2878621 269.289473,39.9900368 268.108775,40.5060118 C266.925828,41.0242302 265.652173,41.2874522 264.321545,41.2874522 C262.991667,41.2874522 261.718762,41.0242302 260.535065,40.5060118 C259.355117,39.9900368 258.315353,39.2878621 257.44351,38.4189303 C256.573167,37.5499985 255.869246,36.512814 255.350489,35.3342972 C254.830981,34.1520414 254.567105,32.8815465 254.567105,31.5572106 C254.567105,30.2328748 254.830981,28.961632 255.350489,27.7786285 C255.869246,26.6001117 256.573167,25.5629271 257.44351,24.6947431 C258.313853,23.8265591 259.353617,23.1251322 260.535065,22.6069139 C262.905457,21.5712249 265.738383,21.5712249 268.108775,22.6069139 C269.291722,23.1251322 270.331486,23.8273069 271.20033,24.6947431 C272.071423,25.5636749 272.776093,26.6016073 273.293351,27.7786285 C273.813608,28.9593887 274.075986,30.2306314 274.075986,31.5572106 L274.075986,31.5572106 Z M280.737555,31.6480322 L280.737555,4.34703809 C278.691575,3.14384396 276.498424,2.15811268 274.19224,1.42370525 L274.19224,19.3278962 L273.706728,18.8824359 C273.193905,18.4113918 272.570325,17.9636742 271.851919,17.5490651 C271.135029,17.1337035 270.354416,16.76048 269.529045,16.4414342 C268.709743,16.1238933 267.844924,15.8620349 266.959622,15.6618788 C266.084183,15.4647325 265.195088,15.363902 264.321166,15.363902 C262.039257,15.363902 259.877969,15.7973227 257.896471,16.6506199 C255.912698,17.505422 254.165611,18.6740027 252.703005,20.1232534 C251.241916,21.5732566 250.063031,23.3061872 249.202006,25.2738874 C248.341738,27.2393303 247.905536,29.3831077 247.905536,31.6480322 C247.905536,33.9114518 248.341738,36.0552293 249.202006,38.0214246 C250.064549,39.9898773 251.242675,41.7228079 252.703005,43.1720586 C254.165611,44.6220618 255.912698,45.7906425 257.896471,46.6446921 C259.87721,47.4987417 262.039257,47.93141 264.321166,47.93141 C266.60535,47.93141 268.768156,47.5077713 270.749654,46.6740383 C272.734944,45.8395528 274.492651,44.6807542 275.971947,43.2315035 C277.45276,41.7830052 278.630127,40.0515795 279.470671,38.0846318 C280.312731,36.1191889 280.737555,33.95359 280.737555,31.6480322 L280.737555,31.6480322 Z" id="Fill-15" fill="#FFFFFF" sketch:type="MSShapeGroup"></path>
            </g>
        </g>
    </g>
</svg>
