<?xml version="1.0" encoding="utf-8"?>
<!-- Generator: Adobe Illustrator 15.1.0, SVG Export Plug-In . SVG Version: 6.00 Build 0)  -->
<!DOCTYPE svg PUBLIC "-//W3C//DTD SVG 1.1//EN" "http://www.w3.org/Graphics/SVG/1.1/DTD/svg11.dtd">
<svg version="1.1" xmlns="http://www.w3.org/2000/svg" xmlns:xlink="http://www.w3.org/1999/xlink" x="0px" y="0px" width="576px"
	 height="598px" viewBox="66.794 26 576 598" enable-background="new 66.794 26 576 598" xml:space="preserve">
<g id="svg2943" xmlns:svg="http://www.w3.org/2000/svg">
	<g>
		<path fill="#6C7EB7" d="M130.139,162.499c64.064-108.513,381.398-110.513,449.311,0v242.918
			c-5,121.303-224.659,217.508-224.659,217.508S135.139,526.72,130.139,405.417V162.499z"/>
	</g>
	<g>
		<path fill="#899BD3" d="M160.901,182.153c25.575-49.212,109.632-71.399,193.716-72.058c0.384-0.003,0.021,478.223,0.021,478.223
			s-193.293-84.66-193.736-192.36V182.153z"/>
	</g>
	<g>
		<path fill="#788AC8" d="M548.683,182.153c-25.575-49.212-109.632-71.399-193.716-72.058c-0.384-0.003-0.021,478.223-0.021,478.223
			s193.293-84.66,193.736-192.36V182.153z"/>
	</g>
	<g>
		<path fill="#6C7EB7" d="M257.688,170.727l65.638-23.039l-3.6,16.559l-44.639,15.479l38.039,15.479l-3.48,16.56l-55.798-23.039
			L257.688,170.727z"/>
		<path fill="#6C7EB7" d="M370.967,122.729h19.439l-45.599,89.036h-19.439L370.967,122.729z"/>
		<path fill="#6C7EB7" d="M390.646,195.205l44.758-15.479l-38.158-15.479l3.6-16.559l55.798,23.039l-3.84,17.999l-65.637,23.039
			L390.646,195.205z"/>
	</g>
	<path id="h" opacity="0.8" stroke="#FFFFFF" stroke-width="3.332" stroke-linejoin="round" d="M300.501,384.193l26.49-134.103
		h31.456l-6.623,34.767h29.801c26.49,1.656,36.423,14.9,33.112,31.457l-11.589,67.879h-33.112l11.589-61.258
		c1.656-8.277,1.656-13.244-9.934-13.244h-24.834l-14.899,74.502H300.501z"/>
	<g opacity="0.8">
		<path stroke="#FFFFFF" stroke-width="3.332" stroke-linejoin="round" d="M408.135,418.96l23.158-134.103h61.257
			c26.489,1.656,39.734,14.9,39.734,38.078c0,39.736-31.457,62.913-59.602,61.258h-27.395l-5.695,34.767H408.135z"/>
		<path fill="#788AC8" stroke="#FFFFFF" stroke-width="3.332" d="M449.505,359.359l8.277-49.668h21.522
			c11.59,0,19.867,4.967,19.867,14.9c-1.655,28.146-14.9,33.112-29.8,34.768H449.505z"/>
	</g>
	<g opacity="0.8">
		<path stroke="#FFFFFF" stroke-width="3.332" stroke-linejoin="round" d="M178.228,418.96l23.157-134.103h61.257
			c26.489,1.656,39.734,14.9,39.734,38.078c0,39.736-31.457,62.913-59.602,61.258H215.38l-5.696,34.767H178.228z"/>
		<path fill="#899BD3" stroke="#FFFFFF" stroke-width="3.332" d="M219.597,359.359l8.278-49.668h21.521
			c11.59,0,19.868,4.967,19.868,14.9c-1.655,28.146-14.901,33.112-29.801,34.768H219.597z"/>
	</g>
</g>
<g id="Layer_2" display="none">
	<polyline display="inline" stroke="#FFFFFF" stroke-width="2" stroke-linejoin="round" points="210.621,58.609 203.116,103.516 
		199.765,123.578 	"/>
</g>
</svg>
