<?xml version="1.0" encoding="UTF-8" standalone="no"?>
<svg viewBox="0 0 575.1 83.7" height="28px"  version="1.1" xmlns="http://www.w3.org/2000/svg" xmlns:xlink="http://www.w3.org/1999/xlink" xmlns:sketch="http://www.bohemiancoding.com/sketch/ns">
    <!-- Generator: Sketch 3.0.2 (7799) - http://www.bohemiancoding.com/sketch -->
    <title>bigLogo</title>
    <description>Created with Sketch.</description>
    <defs></defs>
		<g>
			<path fill-rule="evenodd" clip-rule="evenodd" fill="#5F6B72" d="M430.8,18.1c17.6,0,29.6,7.9,33.2,22.1
			c3.3,13.2,2.1,25.9-8.9,35.6c-14.1,12.5-45.1,10.7-53.8-10.1c-6.8-16.2-2.9-42.2,22.9-46.9C426.8,18.2,429.4,18.2,430.8,18.1z
			M416.1,53.7c0.2,2,0.4,3.8,0.8,5.6c1.7,7.3,7.3,11.8,14.6,12c7.3,0.2,13.2-4,15.4-11.1c1.9-6.3,1.8-12.7-0.1-19
			c-2-6.6-7.2-10.5-13.7-10.6c-8.1-0.1-13.1,2.9-15.5,10c-0.7,2.1-1.1,4.4-1.4,6.5C416,48.1,415.9,52.6,416.1,53.7z"></path>
			<path fill-rule="evenodd" clip-rule="evenodd" fill="#5F6B72" d="M514,74.1c-6.4,6.4-13.4,8.9-21.6,8.8
			c-13.5-0.2-21.4-7.9-21.9-22.4c-0.5-13.4-0.1-26.9-0.1-40.3c0-0.5,0.2-0.9,0.3-1.6c5.5,0,11,0,16.8,0c0.1,1.3,0.2,2.6,0.2,3.9
			c0,10.7,0,21.4,0,32.1c0,1.1,0,2.2,0,3.4c0.2,8.6,3.8,13.1,10.8,13.4c8.5,0.4,13.7-3.9,14.3-12.7c0.6-9.7,0.5-19.4,0.7-29.1
			c0.1-3.6,0-7.2,0-11c5.7,0,11,0,16.6,0c0,21.3,0,42.4,0,63.9c-5.1,0-10.1,0-15.6,0C514.3,80.1,514.2,77.5,514,74.1z"></path>
			<path fill-rule="evenodd" clip-rule="evenodd" fill="#ec1c23" d="M102.7,61.7c5.5,0,10.6,0,15.7,0c4.1,9.1,11.7,12.6,20.5,9.3
			c3.1-1.2,5.5-3.1,5.6-6.7c0.1-3.6-2.6-5.2-5.6-6.1c-6.4-1.8-13-3.4-19.4-5.1c-1.4-0.4-2.9-0.8-4.3-1.3c-7.4-2.7-10.9-6.9-11.1-13.3
			c-0.3-8.2,3-14,10-17.1c8-3.5,16.5-4.2,24.9-2.7c5,0.9,10,2.9,14.4,5.5c4.5,2.7,6.6,7.5,6.7,13.3c-5.1,0-9.9,0.1-14.8-0.1
			c-0.6,0-1.7-0.8-1.8-1.4c-1.5-5.4-6-6.3-10.5-6.7c-2.6-0.2-5.5,0.2-8,1.1c-1.5,0.6-3.2,2.8-3.3,4.3c-0.1,1.6,1.3,4.1,2.7,4.7
			c4.1,1.7,8.4,2.8,12.7,4c4.3,1.2,8.8,1.9,13,3.3c6.2,2.1,11.1,5.8,11.9,12.9c0.8,7.6-1.7,14.3-8.5,18.2c-4,2.3-8.7,3.8-13.2,4.5
			c-9.3,1.3-18.7,1.1-27.3-3.6C106.5,75.3,102.7,69.9,102.7,61.7z"></path>
			<path fill="#ec1c23" d="M391.8,62.7c-0.1,0-0.2-0.1-0.2-0.1c-2.2,0.1-5.2,0.1-6.3,1.5c-5.2,6.4-11.8,7.5-19.1,5.7
			c-6.9-1.6-10.7-7.7-9.9-15.2c11.5,0,23,0,34.1,0c-0.8-8.7,0.9-17.5,4.8-24.9c0,0,0,0,0-0.1c-0.2-1.4-1.2-2.4-3.8-4.6
			c-0.7-0.6-1.4-1.1-2.1-1.6c-10.6-7.4-26.6-7.2-37.6,0.3c-11,7.5-16,21.6-12.6,35.7c5.3,21.9,34,31.6,52.3,17.8
			c2.7-2.1,4-3.1,4.2-4.7c-0.7-1.2-1.3-2.5-1.9-3.8C393,66.8,392.3,64.8,391.8,62.7z M370.1,30.7c8.4-0.1,14.1,5.1,14.2,13.4
			c-9.4,0-18.7,0-28.1,0C355.5,37.3,361.8,30.9,370.1,30.7z"></path>
			<path fill-rule="evenodd" clip-rule="evenodd" fill="#ec1c23" d="M278.3,18.2c5.6,0,11-0.1,16.4,0.1c0.9,0,2.1,1.8,2.5,3
			c3.9,12.4,7.6,24.9,11.4,37.4c0.3,1.1,0.7,2.1,1.4,4.1c0.8-2.1,1.3-3.3,1.8-4.7c3.8-12.3,7.6-24.7,11.2-37c0.6-2.2,1.6-3,3.8-2.9
			c4.6,0.2,9.2,0.1,14.3,0.1c-0.4,1.4-0.6,2.5-1,3.6c-6.5,19.3-13,38.6-19.4,57.9c-0.9,2.6-2,3.5-4.7,3.3c-4.5-0.2-9,0.1-13.4-0.2
			c-1.2-0.1-3.1-1.2-3.4-2.2c-7-20.2-13.9-40.4-20.7-60.6C278.3,19.6,278.4,19.1,278.3,18.2z"></path>
			<path fill-rule="evenodd" clip-rule="evenodd" fill="#5F6B72" d="M562.4,0c0,6.1,0,11.9,0,18.2c4.2,0,8.1,0,12.4,0
			c0,4,0,7.6,0,11.8c-3.2,0-6.3,0.1-9.3,0c-2.1-0.1-3.2,0.5-3.1,2.9c0.1,10.2,0,20.4,0.1,30.6c0,4.2,1.9,6.1,6.2,6.3c2,0.1,4,0,6.5,0
			c0,3.7,0.1,7.3-0.1,11c-0.1,0.7-1.7,1.9-2.6,1.9c-5.8-0.1-11.7,0.1-17.4-1c-6.8-1.2-10-6.2-10-14.1c-0.1-11.2-0.2-22.4,0.1-33.5
			c0.1-3.4-1.1-4.5-4.3-4.1c-1.9,0.2-3.9,0-6.1,0c0-4,0-7.5,0-11.5c3.3,0,6.5,0,10.1,0c0-6.3,0-12.2,0-18.4C550.8,0,556.3,0,562.4,0z
			"></path>
			<path fill-rule="evenodd" clip-rule="evenodd" fill="#ec1c23" d="M250.2,82.8c-6.1,0-11.5,0-17.3,0c0-21.5,0-42.8,0-64.3
			c5.3,0,10.6,0,16.5,0c0,3.8,0,7.6,0,11.5c4.5-5.9,9.7-10,16.8-11.4c1.8-0.3,3.7-0.5,5.5-0.3c1,0.1,2.4,1.1,2.7,2
			c1.6,4.5,2.9,9.2,4.3,13.9c-3.4,0-6.5,0.1-9.6,0c-11.2-0.5-18.3,5.7-18.7,17c-0.3,9.1-0.2,18.1-0.2,27.2
			C250.2,79.8,250.2,81.2,250.2,82.8z"></path>
			<path fill-rule="evenodd" clip-rule="evenodd" fill="#ec1c23" d="M0,18.2c4.7,0,9.1,0,13.4,0c0.7,0,1.5,0.1,2.8,0.2
			c0,3.9,0,7.8,0,11.6c0.3,0.2,0.5,0.4,0.8,0.6c7.4-13.5,19.5-13.3,33.2-11.8c-6.6,3.7-11,8.3-13.9,14.3c-0.3,0.5-1.1,1-1.7,1.1
			C20.3,37.4,17,41.6,17,56.4c0,7.6,0,15.2,0,22.8c0,1.1-0.1,2.2-0.2,3.6c-5.6,0-11,0-16.8,0C0,61.4,0,40,0,18.2z"></path>
			<path fill-rule="evenodd" clip-rule="evenodd" fill="#ec1c23" d="M211.3,62.6c-0.1,0.4-0.7,1.8-1.2,2.3c-4.5,5.3-13,7.4-20.2,4.6
			c-5.7-2.2-8.7-7.4-8.3-14.6c15.2,0,30.5,0,45.9,0c2.7-18.1-9.1-34.1-26.2-36.4c-18.4-2.5-35.1,9.5-37.3,26.8
			c-2.5,20.3,8.3,35.3,27,37.7c17.6,2.2,33.4-6.8,35-20.3H211.3z M195.2,30.7c8.6-0.3,13.9,4.4,14.6,13.1c-9.4,0-18.7,0-28.1,0
			C181.7,36.3,187.3,31,195.2,30.7z"></path>
			<path fill-rule="evenodd" clip-rule="evenodd" fill="#ec1c23" d="M84.5,62.6c-0.3,0.4-0.8,1.2-1,1.4c-5.5,6.6-13.8,8.5-21.5,5
			c-5.2-2.4-8.3-8.1-7.3-14.5c15.2,0,30.6,0,45.8,0c1.6-16-6.9-33.3-25.7-36.1C57,15.7,40.4,26.7,37.2,43.5
			c-3.5,18.9,6.3,35.3,23.2,38.7C79.5,86,95.8,78,99.2,62.6H84.5z M68.8,30.7c8.1-0.1,13.3,4.6,13.9,13.1c-9.6,0-18.9,0-28.2,0
			C55,35.7,60.5,30.8,68.8,30.7z"></path>
		</g>
</svg>
